{
	"patcher" : 	{
		"fileversion" : 1,
		"appversion" : 		{
			"major" : 8,
			"minor" : 1,
			"revision" : 5,
			"architecture" : "x64",
			"modernui" : 1
		}
,
		"classnamespace" : "box",
		"rect" : [ 34.0, 77.0, 1642.0, 939.0 ],
		"bglocked" : 0,
		"openinpresentation" : 0,
		"default_fontsize" : 12.0,
		"default_fontface" : 0,
		"default_fontname" : "Arial",
		"gridonopen" : 1,
		"gridsize" : [ 15.0, 15.0 ],
		"gridsnaponopen" : 1,
		"objectsnaponopen" : 1,
		"statusbarvisible" : 2,
		"toolbarvisible" : 1,
		"lefttoolbarpinned" : 0,
		"toptoolbarpinned" : 0,
		"righttoolbarpinned" : 0,
		"bottomtoolbarpinned" : 0,
		"toolbars_unpinned_last_save" : 0,
		"tallnewobj" : 0,
		"boxanimatetime" : 200,
		"enablehscroll" : 1,
		"enablevscroll" : 1,
		"devicewidth" : 0.0,
		"description" : "",
		"digest" : "",
		"tags" : "",
		"style" : "",
		"subpatcher_template" : "",
		"assistshowspatchername" : 0,
		"boxes" : [ 			{
				"box" : 				{
					"id" : "obj-74",
					"maxclass" : "number",
					"numinlets" : 1,
					"numoutlets" : 2,
					"outlettype" : [ "", "bang" ],
					"parameter_enable" : 0,
					"patching_rect" : [ 947.457093497117512, 964.0, 50.0, 22.0 ]
				}

			}
, 			{
				"box" : 				{
					"id" : "obj-68",
					"maxclass" : "message",
					"numinlets" : 2,
					"numoutlets" : 1,
					"outlettype" : [ "" ],
					"patching_rect" : [ 1027.0, 968.0, 182.764503538608551, 22.0 ],
					"text" : "3930."
				}

			}
, 			{
				"box" : 				{
					"id" : "obj-63",
					"maxclass" : "message",
					"numinlets" : 2,
					"numoutlets" : 1,
					"outlettype" : [ "" ],
					"patching_rect" : [ 881.0, 924.0, 144.0, 22.0 ],
					"text" : "586785."
				}

			}
, 			{
				"box" : 				{
					"id" : "obj-61",
					"maxclass" : "button",
					"numinlets" : 1,
					"numoutlets" : 1,
					"outlettype" : [ "bang" ],
					"parameter_enable" : 0,
					"patching_rect" : [ 855.0, 968.0, 24.0, 24.0 ]
				}

			}
, 			{
				"box" : 				{
					"id" : "obj-59",
					"maxclass" : "newobj",
					"numinlets" : 1,
					"numoutlets" : 3,
					"outlettype" : [ "int", "bang", "bang" ],
					"patching_rect" : [ 596.0, 816.0, 40.0, 22.0 ],
					"text" : "t i b b"
				}

			}
, 			{
				"box" : 				{
					"id" : "obj-57",
					"maxclass" : "newobj",
					"numinlets" : 2,
					"numoutlets" : 1,
					"outlettype" : [ "float" ],
					"patching_rect" : [ 762.357090731461994, 891.0, 47.0, 22.0 ],
					"text" : "clocker"
				}

			}
, 			{
				"box" : 				{
					"id" : "obj-56",
					"maxclass" : "newobj",
					"numinlets" : 1,
					"numoutlets" : 2,
					"outlettype" : [ "bang", "int" ],
					"patching_rect" : [ 662.0, 930.0, 29.5, 22.0 ],
					"text" : "t b i"
				}

			}
, 			{
				"box" : 				{
					"id" : "obj-43",
					"maxclass" : "newobj",
					"numinlets" : 1,
					"numoutlets" : 1,
					"outlettype" : [ "" ],
					"patching_rect" : [ 596.0, 891.0, 32.0, 22.0 ],
					"text" : "mtof"
				}

			}
, 			{
				"box" : 				{
					"id" : "obj-46",
					"maxclass" : "kslider",
					"numinlets" : 2,
					"numoutlets" : 2,
					"outlettype" : [ "int", "int" ],
					"parameter_enable" : 0,
					"patching_rect" : [ 596.0, 686.0, 504.0, 76.0 ]
				}

			}
, 			{
				"box" : 				{
					"id" : "obj-327",
					"maxclass" : "message",
					"numinlets" : 2,
					"numoutlets" : 1,
					"outlettype" : [ "" ],
					"patching_rect" : [ 323.630373537540436, 1397.249398440122604, 29.5, 22.0 ],
					"text" : "100"
				}

			}
, 			{
				"box" : 				{
					"id" : "obj-325",
					"maxclass" : "newobj",
					"numinlets" : 1,
					"numoutlets" : 1,
					"outlettype" : [ "bang" ],
					"patching_rect" : [ 323.630373537540436, 1365.973123833537102, 58.0, 22.0 ],
					"text" : "loadbang"
				}

			}
, 			{
				"box" : 				{
					"id" : "obj-314",
					"maxclass" : "message",
					"numinlets" : 2,
					"numoutlets" : 1,
					"outlettype" : [ "" ],
					"patching_rect" : [ 1263.483523070812225, 1413.897150903940201, 29.5, 22.0 ],
					"text" : "4"
				}

			}
, 			{
				"box" : 				{
					"id" : "obj-312",
					"maxclass" : "message",
					"numinlets" : 2,
					"numoutlets" : 1,
					"outlettype" : [ "" ],
					"patching_rect" : [ 1037.873761594295502, 1413.897150903940201, 29.5, 22.0 ],
					"text" : "3"
				}

			}
, 			{
				"box" : 				{
					"id" : "obj-308",
					"maxclass" : "message",
					"numinlets" : 2,
					"numoutlets" : 1,
					"outlettype" : [ "" ],
					"patching_rect" : [ 823.473758399486542, 1413.897150903940201, 29.5, 22.0 ],
					"text" : "2"
				}

			}
, 			{
				"box" : 				{
					"id" : "obj-306",
					"maxclass" : "message",
					"numinlets" : 2,
					"numoutlets" : 1,
					"outlettype" : [ "" ],
					"patching_rect" : [ 605.873755156993866, 1413.897150903940201, 29.5, 22.0 ],
					"text" : "1"
				}

			}
, 			{
				"box" : 				{
					"id" : "obj-302",
					"maxclass" : "message",
					"numinlets" : 2,
					"numoutlets" : 1,
					"outlettype" : [ "" ],
					"patching_rect" : [ 365.594271957874298, 1609.705032527446747, 29.5, 22.0 ],
					"text" : "110"
				}

			}
, 			{
				"box" : 				{
					"id" : "obj-446",
					"interval" : 53,
					"markercolor" : [ 0.929411764705882, 0.36078431372549, 0.866666666666667, 1.0 ],
					"maxclass" : "spectroscope~",
					"numinlets" : 2,
					"numoutlets" : 1,
					"outlettype" : [ "" ],
					"patching_rect" : [ 733.057090302308552, 1751.96084064245224, 722.0, 100.0 ]
				}

			}
, 			{
				"box" : 				{
					"id" : "obj-445",
					"linecount" : 3,
					"maxclass" : "comment",
					"numinlets" : 1,
					"numoutlets" : 0,
					"patching_rect" : [ 1234.949311375617981, 1040.756890058517456, 229.0, 48.0 ],
					"style" : "max log comments",
					"text" : "use of parallel frequency multiplication to allow for more interesting harmonic series etc."
				}

			}
, 			{
				"box" : 				{
					"id" : "obj-444",
					"linecount" : 6,
					"maxclass" : "comment",
					"numinlets" : 1,
					"numoutlets" : 0,
					"patching_rect" : [ 336.623173773288727, 1273.15641251206398, 112.0, 89.0 ],
					"style" : "max log comments",
					"text" : "note: crazy cabling and bang just so that everything updates when changed, not just when f_0 changed."
				}

			}
, 			{
				"box" : 				{
					"id" : "obj-443",
					"maxclass" : "button",
					"numinlets" : 1,
					"numoutlets" : 1,
					"outlettype" : [ "bang" ],
					"parameter_enable" : 0,
					"patching_rect" : [ 385.354456603527069, 1381.619382187724113, 24.0, 24.0 ]
				}

			}
, 			{
				"box" : 				{
					"id" : "obj-441",
					"linecount" : 5,
					"maxclass" : "comment",
					"numinlets" : 1,
					"numoutlets" : 0,
					"patching_rect" : [ 1300.690051019191742, 1480.571697533130646, 228.0, 75.0 ],
					"style" : "max log comments",
					"text" : "integers = harmonic series\nfloats = non-harmonic higher frequencies\n\nnotice the difference in how the integer and float shifts sounds!"
				}

			}
, 			{
				"box" : 				{
					"id" : "obj-436",
					"maxclass" : "message",
					"numinlets" : 2,
					"numoutlets" : 1,
					"outlettype" : [ "" ],
					"patching_rect" : [ 1169.057096799214833, 1507.415667861700058, 63.300000429153442, 22.0 ],
					"style" : "max log result m",
					"text" : "12540."
				}

			}
, 			{
				"box" : 				{
					"id" : "obj-437",
					"maxclass" : "number",
					"numinlets" : 1,
					"numoutlets" : 2,
					"outlettype" : [ "", "bang" ],
					"parameter_enable" : 0,
					"patching_rect" : [ 1138.02376389503479, 1413.897150903940201, 50.0, 22.0 ]
				}

			}
, 			{
				"box" : 				{
					"format" : 6,
					"id" : "obj-438",
					"maxclass" : "flonum",
					"numinlets" : 1,
					"numoutlets" : 2,
					"outlettype" : [ "", "bang" ],
					"parameter_enable" : 0,
					"patching_rect" : [ 1203.764503538608551, 1413.897150903940201, 50.0, 22.0 ]
				}

			}
, 			{
				"box" : 				{
					"id" : "obj-439",
					"maxclass" : "newobj",
					"numinlets" : 2,
					"numoutlets" : 1,
					"outlettype" : [ "float" ],
					"patching_rect" : [ 1138.02376389503479, 1467.600853711366653, 29.5, 22.0 ],
					"text" : "* 4."
				}

			}
, 			{
				"box" : 				{
					"id" : "obj-432",
					"maxclass" : "message",
					"numinlets" : 2,
					"numoutlets" : 1,
					"outlettype" : [ "" ],
					"patching_rect" : [ 947.457093497117512, 1507.415667861700058, 63.300000429153442, 22.0 ],
					"style" : "max log result m",
					"text" : "9405."
				}

			}
, 			{
				"box" : 				{
					"id" : "obj-433",
					"maxclass" : "number",
					"numinlets" : 1,
					"numoutlets" : 2,
					"outlettype" : [ "", "bang" ],
					"parameter_enable" : 0,
					"patching_rect" : [ 916.423760592937469, 1413.897150903940201, 50.0, 22.0 ]
				}

			}
, 			{
				"box" : 				{
					"format" : 6,
					"id" : "obj-434",
					"maxclass" : "flonum",
					"numinlets" : 1,
					"numoutlets" : 2,
					"outlettype" : [ "", "bang" ],
					"parameter_enable" : 0,
					"patching_rect" : [ 982.16450023651123, 1413.897150903940201, 50.0, 22.0 ]
				}

			}
, 			{
				"box" : 				{
					"id" : "obj-435",
					"maxclass" : "newobj",
					"numinlets" : 2,
					"numoutlets" : 1,
					"outlettype" : [ "float" ],
					"patching_rect" : [ 916.423760592937469, 1467.600853711366653, 29.5, 22.0 ],
					"text" : "* 3."
				}

			}
, 			{
				"box" : 				{
					"id" : "obj-428",
					"maxclass" : "message",
					"numinlets" : 2,
					"numoutlets" : 1,
					"outlettype" : [ "" ],
					"patching_rect" : [ 733.057090302308552, 1507.415667861700058, 63.300000429153442, 22.0 ],
					"style" : "max log result m",
					"text" : "6270."
				}

			}
, 			{
				"box" : 				{
					"id" : "obj-429",
					"maxclass" : "number",
					"numinlets" : 1,
					"numoutlets" : 2,
					"outlettype" : [ "", "bang" ],
					"parameter_enable" : 0,
					"patching_rect" : [ 702.02375739812851, 1413.897150903940201, 50.0, 22.0 ]
				}

			}
, 			{
				"box" : 				{
					"format" : 6,
					"id" : "obj-430",
					"maxclass" : "flonum",
					"numinlets" : 1,
					"numoutlets" : 2,
					"outlettype" : [ "", "bang" ],
					"parameter_enable" : 0,
					"patching_rect" : [ 767.764497041702271, 1413.897150903940201, 50.0, 22.0 ]
				}

			}
, 			{
				"box" : 				{
					"id" : "obj-431",
					"maxclass" : "newobj",
					"numinlets" : 2,
					"numoutlets" : 1,
					"outlettype" : [ "float" ],
					"patching_rect" : [ 702.02375739812851, 1467.600853711366653, 29.5, 22.0 ],
					"text" : "* 2."
				}

			}
, 			{
				"box" : 				{
					"fontface" : 1,
					"id" : "obj-427",
					"maxclass" : "comment",
					"numinlets" : 1,
					"numoutlets" : 0,
					"patching_rect" : [ 385.354456603527069, 1455.563816875219345, 40.0, 20.0 ],
					"text" : "f_0"
				}

			}
, 			{
				"box" : 				{
					"id" : "obj-425",
					"maxclass" : "message",
					"numinlets" : 2,
					"numoutlets" : 1,
					"outlettype" : [ "" ],
					"patching_rect" : [ 515.457087059815876, 1507.415667861700058, 63.300000429153442, 22.0 ],
					"style" : "max log result m",
					"text" : "3135."
				}

			}
, 			{
				"box" : 				{
					"id" : "obj-423",
					"maxclass" : "number",
					"numinlets" : 1,
					"numoutlets" : 2,
					"outlettype" : [ "", "bang" ],
					"parameter_enable" : 0,
					"patching_rect" : [ 484.423754155635834, 1413.897150903940201, 50.0, 22.0 ]
				}

			}
, 			{
				"box" : 				{
					"format" : 6,
					"id" : "obj-421",
					"maxclass" : "flonum",
					"numinlets" : 1,
					"numoutlets" : 2,
					"outlettype" : [ "", "bang" ],
					"parameter_enable" : 0,
					"patching_rect" : [ 550.164493799209595, 1413.897150903940201, 50.0, 22.0 ]
				}

			}
, 			{
				"box" : 				{
					"id" : "obj-417",
					"maxclass" : "newobj",
					"numinlets" : 2,
					"numoutlets" : 1,
					"outlettype" : [ "float" ],
					"patching_rect" : [ 484.423754155635834, 1467.600853711366653, 29.5, 22.0 ],
					"text" : "* 1."
				}

			}
, 			{
				"box" : 				{
					"id" : "obj-353",
					"maxclass" : "message",
					"numinlets" : 2,
					"numoutlets" : 1,
					"outlettype" : [ "" ],
					"patching_rect" : [ 786.823756396770932, 1231.3351891040802, 115.200001001357577, 22.0 ],
					"style" : "max log result m",
					"text" : "setdomain 995"
				}

			}
, 			{
				"box" : 				{
					"id" : "obj-355",
					"maxclass" : "number",
					"numinlets" : 1,
					"numoutlets" : 2,
					"outlettype" : [ "", "bang" ],
					"parameter_enable" : 0,
					"patching_rect" : [ 852.02375739812851, 1029.505529999732971, 50.0, 22.0 ]
				}

			}
, 			{
				"box" : 				{
					"id" : "obj-356",
					"maxclass" : "message",
					"numinlets" : 2,
					"numoutlets" : 1,
					"outlettype" : [ "" ],
					"patching_rect" : [ 720.057090302308552, 1107.749043971300125, 29.5, 22.0 ],
					"text" : "0"
				}

			}
, 			{
				"box" : 				{
					"id" : "obj-357",
					"maxclass" : "newobj",
					"numinlets" : 2,
					"numoutlets" : 1,
					"outlettype" : [ "bang" ],
					"patching_rect" : [ 924.668204545974731, 1171.304562360048294, 69.0, 22.0 ],
					"text" : "metro 2000"
				}

			}
, 			{
				"box" : 				{
					"id" : "obj-358",
					"maxclass" : "message",
					"numinlets" : 2,
					"numoutlets" : 1,
					"outlettype" : [ "" ],
					"patching_rect" : [ 405.465567529201508, 1609.705032527446747, 29.5, 22.0 ],
					"text" : "80"
				}

			}
, 			{
				"box" : 				{
					"id" : "obj-359",
					"maxclass" : "button",
					"numinlets" : 1,
					"numoutlets" : 1,
					"outlettype" : [ "bang" ],
					"parameter_enable" : 0,
					"patching_rect" : [ 786.823756396770932, 1067.37036919593811, 24.0, 24.0 ]
				}

			}
, 			{
				"box" : 				{
					"id" : "obj-360",
					"maxclass" : "message",
					"numinlets" : 2,
					"numoutlets" : 1,
					"outlettype" : [ "" ],
					"patching_rect" : [ 786.823756396770932, 1029.505529999732971, 49.0, 22.0 ],
					"style" : "max log big green button",
					"text" : "CYCLE"
				}

			}
, 			{
				"box" : 				{
					"id" : "obj-361",
					"maxclass" : "message",
					"numinlets" : 2,
					"numoutlets" : 1,
					"outlettype" : [ "" ],
					"patching_rect" : [ 978.66450023651123, 1130.56382229924202, 27.5, 22.0 ],
					"style" : "max log result m",
					"text" : "1"
				}

			}
, 			{
				"box" : 				{
					"id" : "obj-362",
					"maxclass" : "message",
					"numinlets" : 2,
					"numoutlets" : 1,
					"outlettype" : [ "" ],
					"patching_rect" : [ 987.473759591579437, 1074.082341760396957, 29.5, 22.0 ],
					"text" : "2"
				}

			}
, 			{
				"box" : 				{
					"id" : "obj-363",
					"maxclass" : "message",
					"numinlets" : 2,
					"numoutlets" : 1,
					"outlettype" : [ "" ],
					"patching_rect" : [ 947.457093497117512, 1074.082341760396957, 29.5, 22.0 ],
					"text" : "1"
				}

			}
, 			{
				"box" : 				{
					"id" : "obj-364",
					"maxclass" : "message",
					"numinlets" : 2,
					"numoutlets" : 1,
					"outlettype" : [ "" ],
					"patching_rect" : [ 913.673760592937469, 1074.082341760396957, 29.5, 22.0 ],
					"text" : "0"
				}

			}
, 			{
				"box" : 				{
					"id" : "obj-365",
					"maxclass" : "button",
					"numinlets" : 1,
					"numoutlets" : 1,
					"outlettype" : [ "bang" ],
					"parameter_enable" : 0,
					"patching_rect" : [ 720.057090302308552, 1067.37036919593811, 24.0, 24.0 ]
				}

			}
, 			{
				"box" : 				{
					"id" : "obj-366",
					"maxclass" : "newobj",
					"numinlets" : 2,
					"numoutlets" : 2,
					"outlettype" : [ "", "" ],
					"patching_rect" : [ 924.668204545974731, 1130.56382229924202, 42.0, 22.0 ],
					"text" : "gate 2"
				}

			}
, 			{
				"box" : 				{
					"id" : "obj-367",
					"maxclass" : "message",
					"numinlets" : 2,
					"numoutlets" : 1,
					"outlettype" : [ "" ],
					"patching_rect" : [ 720.057090302308552, 1029.505529999732971, 48.0, 22.0 ],
					"style" : "max log big green button",
					"text" : "PULSE"
				}

			}
, 			{
				"box" : 				{
					"id" : "obj-368",
					"maxclass" : "message",
					"numinlets" : 2,
					"numoutlets" : 1,
					"outlettype" : [ "" ],
					"patching_rect" : [ 394.354456603527069, 1029.505529999732971, 32.0, 22.0 ],
					"style" : "max log big red button",
					"text" : "OFF"
				}

			}
, 			{
				"box" : 				{
					"id" : "obj-370",
					"maxclass" : "message",
					"numinlets" : 2,
					"numoutlets" : 1,
					"outlettype" : [ "" ],
					"patching_rect" : [ 432.815992772579193, 1029.505529999732971, 29.5, 22.0 ],
					"style" : "max log big red button",
					"text" : "0"
				}

			}
, 			{
				"box" : 				{
					"id" : "obj-371",
					"maxclass" : "message",
					"numinlets" : 2,
					"numoutlets" : 1,
					"outlettype" : [ "" ],
					"patching_rect" : [ 1249.223764896392822, 1682.772231698036194, 50.0, 22.0 ],
					"style" : "max log result m",
					"text" : "80"
				}

			}
, 			{
				"box" : 				{
					"id" : "obj-372",
					"maxclass" : "message",
					"numinlets" : 2,
					"numoutlets" : 1,
					"outlettype" : [ "" ],
					"patching_rect" : [ 1027.623761594295502, 1682.772231698036194, 50.0, 22.0 ],
					"style" : "max log result m",
					"text" : "80"
				}

			}
, 			{
				"box" : 				{
					"id" : "obj-373",
					"maxclass" : "message",
					"numinlets" : 2,
					"numoutlets" : 1,
					"outlettype" : [ "" ],
					"patching_rect" : [ 813.223758399486542, 1682.772231698036194, 50.0, 22.0 ],
					"style" : "max log result m",
					"text" : "80"
				}

			}
, 			{
				"box" : 				{
					"id" : "obj-374",
					"maxclass" : "message",
					"numinlets" : 2,
					"numoutlets" : 1,
					"outlettype" : [ "" ],
					"patching_rect" : [ 595.623755156993866, 1682.772231698036194, 50.0, 22.0 ],
					"style" : "max log result m",
					"text" : "80"
				}

			}
, 			{
				"box" : 				{
					"id" : "obj-375",
					"maxclass" : "gain~",
					"multichannelvariant" : 0,
					"numinlets" : 1,
					"numoutlets" : 2,
					"outlettype" : [ "signal", "" ],
					"parameter_enable" : 0,
					"patching_rect" : [ 1138.02376389503479, 1644.372231125831604, 161.200001001358032, 20.799998223781586 ]
				}

			}
, 			{
				"box" : 				{
					"id" : "obj-376",
					"maxclass" : "gain~",
					"multichannelvariant" : 0,
					"numinlets" : 1,
					"numoutlets" : 2,
					"outlettype" : [ "signal", "" ],
					"parameter_enable" : 0,
					"patching_rect" : [ 916.423760592937469, 1644.372231125831604, 161.200001001358032, 20.799998223781586 ]
				}

			}
, 			{
				"box" : 				{
					"id" : "obj-377",
					"maxclass" : "gain~",
					"multichannelvariant" : 0,
					"numinlets" : 1,
					"numoutlets" : 2,
					"outlettype" : [ "signal", "" ],
					"parameter_enable" : 0,
					"patching_rect" : [ 702.02375739812851, 1644.372231125831604, 161.200001001358032, 20.799998223781586 ]
				}

			}
, 			{
				"box" : 				{
					"id" : "obj-378",
					"maxclass" : "gain~",
					"multichannelvariant" : 0,
					"numinlets" : 1,
					"numoutlets" : 2,
					"outlettype" : [ "signal", "" ],
					"parameter_enable" : 0,
					"patching_rect" : [ 484.423754155635834, 1654.898547291755676, 161.200001001358032, 20.799998223781586 ]
				}

			}
, 			{
				"box" : 				{
					"id" : "obj-379",
					"maxclass" : "newobj",
					"numinlets" : 2,
					"numoutlets" : 1,
					"outlettype" : [ "signal" ],
					"patching_rect" : [ 1138.02376389503479, 1601.371699333190918, 29.5, 22.0 ],
					"text" : "*~"
				}

			}
, 			{
				"box" : 				{
					"id" : "obj-380",
					"maxclass" : "newobj",
					"numinlets" : 2,
					"numoutlets" : 1,
					"outlettype" : [ "signal" ],
					"patching_rect" : [ 916.423760592937469, 1601.371699333190918, 29.5, 22.0 ],
					"text" : "*~"
				}

			}
, 			{
				"box" : 				{
					"id" : "obj-381",
					"maxclass" : "newobj",
					"numinlets" : 2,
					"numoutlets" : 1,
					"outlettype" : [ "signal" ],
					"patching_rect" : [ 702.02375739812851, 1601.371699333190918, 29.5, 22.0 ],
					"text" : "*~"
				}

			}
, 			{
				"box" : 				{
					"id" : "obj-382",
					"maxclass" : "message",
					"numinlets" : 2,
					"numoutlets" : 1,
					"outlettype" : [ "" ],
					"patching_rect" : [ 1169.057096799214833, 1219.36481761932373, 35.0, 22.0 ],
					"text" : "clear"
				}

			}
, 			{
				"box" : 				{
					"id" : "obj-384",
					"maxclass" : "newobj",
					"numinlets" : 2,
					"numoutlets" : 2,
					"outlettype" : [ "signal", "bang" ],
					"patching_rect" : [ 1198.357097228368275, 1554.564822614192963, 34.0, 22.0 ],
					"text" : "line~"
				}

			}
, 			{
				"box" : 				{
					"id" : "obj-385",
					"maxclass" : "button",
					"numinlets" : 1,
					"numoutlets" : 1,
					"outlettype" : [ "bang" ],
					"parameter_enable" : 0,
					"patching_rect" : [ 1138.02376389503479, 1219.36481761932373, 24.0, 24.0 ]
				}

			}
, 			{
				"box" : 				{
					"id" : "obj-386",
					"maxclass" : "message",
					"numinlets" : 2,
					"numoutlets" : 1,
					"outlettype" : [ "" ],
					"patching_rect" : [ 1176.823762893676758, 1260.964818239212036, 81.0, 22.0 ],
					"text" : "setdomain $1"
				}

			}
, 			{
				"box" : 				{
					"id" : "obj-387",
					"maxclass" : "newobj",
					"numinlets" : 2,
					"numoutlets" : 1,
					"outlettype" : [ "signal" ],
					"patching_rect" : [ 1138.02376389503479, 1554.564822614192963, 43.0, 22.0 ],
					"text" : "cycle~"
				}

			}
, 			{
				"box" : 				{
					"addpoints" : [ 0.0, 0.0, 0, 88.656936375067531, 0.868975667556127, 0, 330.96660951826135, 1.0, 0, 637.0419861201907, 0.724397348960241, 0, 765.458000194519741, 0.529099337657293, 0, 860.22194822576455, 0.226405362685521, 0, 990.176148615947227, 0.0, 0 ],
					"domain" : 995.0,
					"id" : "obj-388",
					"maxclass" : "function",
					"numinlets" : 1,
					"numoutlets" : 4,
					"outlettype" : [ "float", "", "", "bang" ],
					"parameter_enable" : 0,
					"patching_rect" : [ 1138.02376389503479, 1294.764787495136261, 200.0, 100.0 ]
				}

			}
, 			{
				"box" : 				{
					"id" : "obj-389",
					"maxclass" : "message",
					"numinlets" : 2,
					"numoutlets" : 1,
					"outlettype" : [ "" ],
					"patching_rect" : [ 947.457093497117512, 1219.36481761932373, 35.0, 22.0 ],
					"text" : "clear"
				}

			}
, 			{
				"box" : 				{
					"id" : "obj-391",
					"maxclass" : "newobj",
					"numinlets" : 2,
					"numoutlets" : 2,
					"outlettype" : [ "signal", "bang" ],
					"patching_rect" : [ 976.757093926270954, 1554.564822614192963, 34.0, 22.0 ],
					"text" : "line~"
				}

			}
, 			{
				"box" : 				{
					"id" : "obj-392",
					"maxclass" : "button",
					"numinlets" : 1,
					"numoutlets" : 1,
					"outlettype" : [ "bang" ],
					"parameter_enable" : 0,
					"patching_rect" : [ 916.423760592937469, 1219.36481761932373, 24.0, 24.0 ]
				}

			}
, 			{
				"box" : 				{
					"id" : "obj-393",
					"maxclass" : "message",
					"numinlets" : 2,
					"numoutlets" : 1,
					"outlettype" : [ "" ],
					"patching_rect" : [ 955.223759591579437, 1260.964818239212036, 81.0, 22.0 ],
					"text" : "setdomain $1"
				}

			}
, 			{
				"box" : 				{
					"id" : "obj-394",
					"maxclass" : "newobj",
					"numinlets" : 2,
					"numoutlets" : 1,
					"outlettype" : [ "signal" ],
					"patching_rect" : [ 916.423760592937469, 1554.564822614192963, 43.0, 22.0 ],
					"text" : "cycle~"
				}

			}
, 			{
				"box" : 				{
					"addpoints" : [ 9.45672756021327, 0.0, 0, 154.305556928540767, 0.594056174755096, 0, 327.009930406162255, 0.650196527640025, 0, 449.57432448705481, 0.734407056967417, 0, 560.996500924229963, 0.790547409852346, 0, 672.418677361404775, 0.860722850958506, 0, 783.84085379857936, 0.706336880524953, 0, 995.000000000000568, 0.0, 0 ],
					"domain" : 995.0,
					"id" : "obj-395",
					"maxclass" : "function",
					"numinlets" : 1,
					"numoutlets" : 4,
					"outlettype" : [ "float", "", "", "bang" ],
					"parameter_enable" : 0,
					"patching_rect" : [ 916.423760592937469, 1294.764787495136261, 200.0, 100.0 ]
				}

			}
, 			{
				"box" : 				{
					"id" : "obj-396",
					"maxclass" : "message",
					"numinlets" : 2,
					"numoutlets" : 1,
					"outlettype" : [ "" ],
					"patching_rect" : [ 733.057090302308552, 1219.36481761932373, 35.0, 22.0 ],
					"text" : "clear"
				}

			}
, 			{
				"box" : 				{
					"id" : "obj-398",
					"maxclass" : "newobj",
					"numinlets" : 2,
					"numoutlets" : 2,
					"outlettype" : [ "signal", "bang" ],
					"patching_rect" : [ 762.357090731461994, 1554.564822614192963, 34.0, 22.0 ],
					"text" : "line~"
				}

			}
, 			{
				"box" : 				{
					"id" : "obj-399",
					"maxclass" : "button",
					"numinlets" : 1,
					"numoutlets" : 1,
					"outlettype" : [ "bang" ],
					"parameter_enable" : 0,
					"patching_rect" : [ 702.02375739812851, 1219.36481761932373, 24.0, 24.0 ]
				}

			}
, 			{
				"box" : 				{
					"id" : "obj-400",
					"maxclass" : "message",
					"numinlets" : 2,
					"numoutlets" : 1,
					"outlettype" : [ "" ],
					"patching_rect" : [ 740.823756396770477, 1260.964818239212036, 81.0, 22.0 ],
					"text" : "setdomain $1"
				}

			}
, 			{
				"box" : 				{
					"id" : "obj-401",
					"maxclass" : "newobj",
					"numinlets" : 2,
					"numoutlets" : 1,
					"outlettype" : [ "signal" ],
					"patching_rect" : [ 702.02375739812851, 1554.564822614192963, 43.0, 22.0 ],
					"text" : "cycle~"
				}

			}
, 			{
				"box" : 				{
					"addpoints" : [ 0.0, 0.0, 0, 236.089410761252367, 1.0, 0, 787.629184125268807, 0.692301792303721, 0, 995.000000000000568, 0.0, 0 ],
					"domain" : 995.0,
					"id" : "obj-402",
					"maxclass" : "function",
					"numinlets" : 1,
					"numoutlets" : 4,
					"outlettype" : [ "float", "", "", "bang" ],
					"parameter_enable" : 0,
					"patching_rect" : [ 702.02375739812851, 1294.764787495136261, 200.0, 100.0 ]
				}

			}
, 			{
				"box" : 				{
					"id" : "obj-403",
					"maxclass" : "message",
					"numinlets" : 2,
					"numoutlets" : 1,
					"outlettype" : [ "" ],
					"patching_rect" : [ 518.779308497905731, 1822.268533408641815, 50.0, 22.0 ],
					"style" : "max log result m",
					"text" : "110"
				}

			}
, 			{
				"box" : 				{
					"id" : "obj-404",
					"maxclass" : "message",
					"numinlets" : 2,
					"numoutlets" : 1,
					"outlettype" : [ "" ],
					"patching_rect" : [ 515.457087059815876, 1219.36481761932373, 35.0, 22.0 ],
					"text" : "clear"
				}

			}
, 			{
				"box" : 				{
					"id" : "obj-405",
					"maxclass" : "ezdac~",
					"numinlets" : 2,
					"numoutlets" : 0,
					"patching_rect" : [ 402.030583143234253, 1802.468530058860779, 45.0, 45.0 ]
				}

			}
, 			{
				"box" : 				{
					"id" : "obj-406",
					"maxclass" : "gain~",
					"multichannelvariant" : 0,
					"numinlets" : 1,
					"numoutlets" : 2,
					"outlettype" : [ "signal", "" ],
					"parameter_enable" : 0,
					"patching_rect" : [ 484.423754155635834, 1707.468530058860779, 22.0, 140.0 ]
				}

			}
, 			{
				"box" : 				{
					"id" : "obj-407",
					"maxclass" : "newobj",
					"numinlets" : 2,
					"numoutlets" : 1,
					"outlettype" : [ "signal" ],
					"patching_rect" : [ 484.423754155635834, 1601.371699333190918, 29.5, 22.0 ],
					"text" : "*~"
				}

			}
, 			{
				"box" : 				{
					"id" : "obj-408",
					"maxclass" : "number",
					"numinlets" : 1,
					"numoutlets" : 2,
					"outlettype" : [ "", "bang" ],
					"parameter_enable" : 0,
					"patching_rect" : [ 385.354456603527069, 1413.897150903940201, 50.0, 22.0 ],
					"style" : "max log_inital value"
				}

			}
, 			{
				"box" : 				{
					"id" : "obj-409",
					"maxclass" : "newobj",
					"numinlets" : 2,
					"numoutlets" : 2,
					"outlettype" : [ "signal", "bang" ],
					"patching_rect" : [ 544.757087488969319, 1554.564822614192963, 34.0, 22.0 ],
					"text" : "line~"
				}

			}
, 			{
				"box" : 				{
					"id" : "obj-410",
					"maxclass" : "button",
					"numinlets" : 1,
					"numoutlets" : 1,
					"outlettype" : [ "bang" ],
					"parameter_enable" : 0,
					"patching_rect" : [ 484.423754155635834, 1219.36481761932373, 24.0, 24.0 ]
				}

			}
, 			{
				"box" : 				{
					"id" : "obj-411",
					"maxclass" : "message",
					"numinlets" : 2,
					"numoutlets" : 1,
					"outlettype" : [ "" ],
					"patching_rect" : [ 523.223753154277802, 1260.964818239212036, 81.0, 22.0 ],
					"text" : "setdomain $1"
				}

			}
, 			{
				"box" : 				{
					"id" : "obj-412",
					"maxclass" : "newobj",
					"numinlets" : 2,
					"numoutlets" : 1,
					"outlettype" : [ "signal" ],
					"patching_rect" : [ 484.423754155635834, 1554.564822614192963, 43.0, 22.0 ],
					"text" : "cycle~"
				}

			}
, 			{
				"box" : 				{
					"addpoints" : [ 0.0, 0.0, 0, 167.676170403335988, 0.523880733648936, 0, 513.084917358578537, 0.776512321631114, 0, 897.373185382876045, 1.0, 0, 994.999999999976581, 0.0, 0 ],
					"domain" : 995.0,
					"id" : "obj-413",
					"maxclass" : "function",
					"numinlets" : 1,
					"numoutlets" : 4,
					"outlettype" : [ "float", "", "", "bang" ],
					"parameter_enable" : 0,
					"patching_rect" : [ 484.423754155635834, 1294.764787495136261, 200.0, 100.0 ]
				}

			}
, 			{
				"box" : 				{
					"id" : "obj-17",
					"maxclass" : "newobj",
					"numinlets" : 2,
					"numoutlets" : 0,
					"patching_rect" : [ 1252.0, 471.0, 35.0, 22.0 ],
					"text" : "dac~"
				}

			}
, 			{
				"box" : 				{
					"id" : "obj-53",
					"maxclass" : "newobj",
					"numinlets" : 3,
					"numoutlets" : 0,
					"patching_rect" : [ 862.499991774559021, 597.321422874927521, 49.0, 22.0 ],
					"text" : "noteout"
				}

			}
, 			{
				"box" : 				{
					"id" : "obj-52",
					"maxclass" : "newobj",
					"numinlets" : 3,
					"numoutlets" : 2,
					"outlettype" : [ "float", "float" ],
					"patching_rect" : [ 862.499991774559021, 517.071423411369324, 115.0, 22.0 ],
					"text" : "makenote 100 1000"
				}

			}
, 			{
				"box" : 				{
					"id" : "obj-51",
					"maxclass" : "kslider",
					"numinlets" : 2,
					"numoutlets" : 2,
					"outlettype" : [ "int", "int" ],
					"parameter_enable" : 0,
					"patching_rect" : [ 897.321420013904572, 246.5, 336.0, 53.0 ]
				}

			}
, 			{
				"box" : 				{
					"fontname" : "Arial",
					"fontsize" : 12.0,
					"id" : "obj-50",
					"maxclass" : "newobj",
					"numinlets" : 1,
					"numoutlets" : 1,
					"outlettype" : [ "" ],
					"patching_rect" : [ 273.0, 655.892852365970612, 63.0, 22.0 ],
					"text" : "sprintf %s"
				}

			}
, 			{
				"box" : 				{
					"fontname" : "Arial",
					"fontsize" : 12.0,
					"id" : "obj-47",
					"linecount" : 2,
					"maxclass" : "message",
					"numinlets" : 2,
					"numoutlets" : 1,
					"outlettype" : [ "" ],
					"patching_rect" : [ 650.607138693332672, 239.821428239345551, 50.0, 36.0 ],
					"text" : "Hello World"
				}

			}
, 			{
				"box" : 				{
					"fontname" : "Arial",
					"fontsize" : 12.0,
					"id" : "obj-48",
					"maxclass" : "message",
					"numinlets" : 2,
					"numoutlets" : 1,
					"outlettype" : [ "" ],
					"patching_rect" : [ 641.607138693332672, 140.821428239345551, 81.0, 22.0 ],
					"text" : "\"Hello World\""
				}

			}
, 			{
				"box" : 				{
					"fontname" : "Arial",
					"fontsize" : 12.0,
					"id" : "obj-49",
					"maxclass" : "newobj",
					"numinlets" : 1,
					"numoutlets" : 1,
					"outlettype" : [ "" ],
					"patching_rect" : [ 641.607138693332672, 189.821428239345551, 63.0, 22.0 ],
					"text" : "sprintf %s"
				}

			}
, 			{
				"box" : 				{
					"id" : "obj-45",
					"maxclass" : "newobj",
					"numinlets" : 2,
					"numoutlets" : 2,
					"outlettype" : [ "", "" ],
					"patching_rect" : [ 133.928570151329041, 624.107136905193329, 45.0, 22.0 ],
					"text" : "zl.slice"
				}

			}
, 			{
				"box" : 				{
					"id" : "obj-44",
					"maxclass" : "number",
					"numinlets" : 1,
					"numoutlets" : 2,
					"outlettype" : [ "", "bang" ],
					"parameter_enable" : 0,
					"patching_rect" : [ 862.499991774559021, 471.084961000000021, 50.0, 22.0 ]
				}

			}
, 			{
				"box" : 				{
					"id" : "obj-26",
					"maxclass" : "message",
					"numinlets" : 2,
					"numoutlets" : 1,
					"outlettype" : [ "" ],
					"patching_rect" : [ 64.392857730388641, 721.428564548492432, 449.999996185302734, 22.0 ],
					"text" : "103"
				}

			}
, 			{
				"box" : 				{
					"id" : "obj-42",
					"maxclass" : "comment",
					"numinlets" : 1,
					"numoutlets" : 0,
					"patching_rect" : [ 105.0, 261.0, 19.0, 20.0 ],
					"text" : "3"
				}

			}
, 			{
				"box" : 				{
					"id" : "obj-41",
					"maxclass" : "comment",
					"numinlets" : 1,
					"numoutlets" : 0,
					"patching_rect" : [ 370.0, 227.0, 19.0, 20.0 ],
					"text" : "2"
				}

			}
, 			{
				"box" : 				{
					"id" : "obj-40",
					"maxclass" : "comment",
					"numinlets" : 1,
					"numoutlets" : 0,
					"patching_rect" : [ 296.0, 150.0, 19.0, 20.0 ],
					"text" : "1"
				}

			}
, 			{
				"box" : 				{
					"id" : "obj-37",
					"maxclass" : "toggle",
					"numinlets" : 1,
					"numoutlets" : 1,
					"outlettype" : [ "int" ],
					"parameter_enable" : 0,
					"patching_rect" : [ 83.0, 261.0, 24.0, 24.0 ],
					"style" : "toggleGold"
				}

			}
, 			{
				"box" : 				{
					"id" : "obj-38",
					"maxclass" : "newobj",
					"numinlets" : 1,
					"numoutlets" : 0,
					"patching_rect" : [ 83.0, 331.509918000000027, 87.0, 22.0 ],
					"text" : "print formatted"
				}

			}
, 			{
				"box" : 				{
					"id" : "obj-39",
					"maxclass" : "newobj",
					"numinlets" : 2,
					"numoutlets" : 1,
					"outlettype" : [ "" ],
					"patching_rect" : [ 83.0, 295.542480000000012, 33.0, 22.0 ],
					"text" : "gate"
				}

			}
, 			{
				"box" : 				{
					"id" : "obj-34",
					"maxclass" : "toggle",
					"numinlets" : 1,
					"numoutlets" : 1,
					"outlettype" : [ "int" ],
					"parameter_enable" : 0,
					"patching_rect" : [ 348.0, 223.607634999999988, 24.0, 24.0 ],
					"style" : "toggleGold"
				}

			}
, 			{
				"box" : 				{
					"id" : "obj-35",
					"maxclass" : "newobj",
					"numinlets" : 1,
					"numoutlets" : 0,
					"patching_rect" : [ 348.0, 295.542480000000012, 79.0, 22.0 ],
					"text" : "print grouped"
				}

			}
, 			{
				"box" : 				{
					"id" : "obj-36",
					"maxclass" : "newobj",
					"numinlets" : 2,
					"numoutlets" : 1,
					"outlettype" : [ "" ],
					"patching_rect" : [ 348.0, 259.575072999999975, 33.0, 22.0 ],
					"text" : "gate"
				}

			}
, 			{
				"box" : 				{
					"id" : "obj-33",
					"maxclass" : "toggle",
					"numinlets" : 1,
					"numoutlets" : 1,
					"outlettype" : [ "int" ],
					"parameter_enable" : 0,
					"patching_rect" : [ 273.0, 155.967421999999999, 24.0, 24.0 ],
					"style" : "toggleGold"
				}

			}
, 			{
				"box" : 				{
					"id" : "obj-32",
					"maxclass" : "newobj",
					"numinlets" : 1,
					"numoutlets" : 0,
					"patching_rect" : [ 273.0, 223.607634999999988, 55.0, 22.0 ],
					"text" : "print raw"
				}

			}
, 			{
				"box" : 				{
					"id" : "obj-25",
					"maxclass" : "newobj",
					"numinlets" : 2,
					"numoutlets" : 1,
					"outlettype" : [ "" ],
					"patching_rect" : [ 273.0, 187.640228000000008, 33.0, 22.0 ],
					"text" : "gate"
				}

			}
, 			{
				"box" : 				{
					"id" : "obj-23",
					"maxclass" : "number",
					"numinlets" : 1,
					"numoutlets" : 2,
					"outlettype" : [ "", "bang" ],
					"parameter_enable" : 0,
					"patching_rect" : [ 174.0, 155.967421999999999, 50.0, 22.0 ]
				}

			}
, 			{
				"box" : 				{
					"bgcolor" : [ 0.454902, 0.462745, 0.482353, 1.0 ],
					"bgcolor2" : [ 0.290196, 0.309804, 0.301961, 1.0 ],
					"bgfillcolor_angle" : 270.0,
					"bgfillcolor_autogradient" : 0.0,
					"bgfillcolor_color" : [ 0.290196, 0.309804, 0.301961, 1.0 ],
					"bgfillcolor_color1" : [ 0.454902, 0.462745, 0.482353, 1.0 ],
					"bgfillcolor_color2" : [ 0.290196, 0.309804, 0.301961, 1.0 ],
					"bgfillcolor_proportion" : 0.39,
					"bgfillcolor_type" : "gradient",
					"gradient" : 1,
					"id" : "obj-31",
					"maxclass" : "message",
					"numinlets" : 2,
					"numoutlets" : 1,
					"outlettype" : [ "" ],
					"patching_rect" : [ 87.0, 471.084961000000021, 36.0, 22.0 ],
					"text" : "clear"
				}

			}
, 			{
				"box" : 				{
					"id" : "obj-30",
					"maxclass" : "button",
					"numinlets" : 1,
					"numoutlets" : 1,
					"outlettype" : [ "bang" ],
					"parameter_enable" : 0,
					"patching_rect" : [ 87.0, 435.117553999999984, 24.0, 24.0 ]
				}

			}
, 			{
				"box" : 				{
					"id" : "obj-29",
					"maxclass" : "newobj",
					"numinlets" : 2,
					"numoutlets" : 2,
					"outlettype" : [ "bang", "" ],
					"patching_rect" : [ 87.0, 399.150146000000007, 41.0, 22.0 ],
					"text" : "sel 32"
				}

			}
, 			{
				"box" : 				{
					"id" : "obj-28",
					"maxclass" : "newobj",
					"numinlets" : 0,
					"numoutlets" : 4,
					"outlettype" : [ "int", "int", "int", "int" ],
					"patching_rect" : [ 87.0, 367.477325000000008, 46.0, 22.0 ],
					"text" : "key"
				}

			}
, 			{
				"box" : 				{
					"bgcolor" : [ 0.454902, 0.462745, 0.482353, 1.0 ],
					"bgcolor2" : [ 0.290196, 0.309804, 0.301961, 1.0 ],
					"bgfillcolor_angle" : 270.0,
					"bgfillcolor_autogradient" : 0.0,
					"bgfillcolor_color" : [ 0.290196, 0.309804, 0.301961, 1.0 ],
					"bgfillcolor_color1" : [ 0.454902, 0.462745, 0.482353, 1.0 ],
					"bgfillcolor_color2" : [ 0.290196, 0.309804, 0.301961, 1.0 ],
					"bgfillcolor_proportion" : 0.39,
					"bgfillcolor_type" : "gradient",
					"gradient" : 1,
					"id" : "obj-27",
					"maxclass" : "message",
					"numinlets" : 2,
					"numoutlets" : 1,
					"outlettype" : [ "" ],
					"patching_rect" : [ 447.0, 435.117553999999984, 66.0, 22.0 ],
					"text" : "frgb $1 0 0"
				}

			}
, 			{
				"box" : 				{
					"id" : "obj-24",
					"maxclass" : "newobj",
					"numinlets" : 1,
					"numoutlets" : 1,
					"outlettype" : [ "" ],
					"patching_rect" : [ 174.0, 471.084961000000021, 86.0, 22.0 ],
					"text" : "prepend lineto"
				}

			}
, 			{
				"box" : 				{
					"id" : "obj-22",
					"maxclass" : "newobj",
					"numinlets" : 2,
					"numoutlets" : 1,
					"outlettype" : [ "int" ],
					"patching_rect" : [ 310.0, 399.150146000000007, 33.0, 22.0 ],
					"text" : "/ 10"
				}

			}
, 			{
				"box" : 				{
					"id" : "obj-21",
					"maxclass" : "newobj",
					"numinlets" : 2,
					"numoutlets" : 1,
					"outlettype" : [ "" ],
					"patching_rect" : [ 174.0, 435.117553999999984, 155.0, 22.0 ],
					"text" : "pack 0 0"
				}

			}
, 			{
				"box" : 				{
					"id" : "obj-20",
					"maxclass" : "newobj",
					"numinlets" : 2,
					"numoutlets" : 1,
					"outlettype" : [ "int" ],
					"patching_rect" : [ 174.0, 399.150146000000007, 33.0, 22.0 ],
					"text" : "/ 2"
				}

			}
, 			{
				"box" : 				{
					"id" : "obj-19",
					"maxclass" : "lcd",
					"numinlets" : 1,
					"numoutlets" : 4,
					"outlettype" : [ "list", "list", "int", "" ],
					"patching_rect" : [ 174.0, 527.0, 500.0, 100.0 ]
				}

			}
, 			{
				"box" : 				{
					"id" : "obj-18",
					"maxclass" : "comment",
					"numinlets" : 1,
					"numoutlets" : 0,
					"patching_rect" : [ 126.0, 59.0, 157.0, 20.0 ],
					"text" : "< start polling the serial port"
				}

			}
, 			{
				"box" : 				{
					"id" : "obj-14",
					"maxclass" : "comment",
					"numinlets" : 1,
					"numoutlets" : 0,
					"patching_rect" : [ 284.0, 86.0, 213.0, 20.0 ],
					"text" : "< send a byte to start the transmission"
				}

			}
, 			{
				"box" : 				{
					"id" : "obj-16",
					"maxclass" : "comment",
					"numinlets" : 1,
					"numoutlets" : 0,
					"patching_rect" : [ 362.5, 367.477325000000008, 50.0, 20.0 ],
					"text" : "random"
				}

			}
, 			{
				"box" : 				{
					"id" : "obj-15",
					"maxclass" : "comment",
					"numinlets" : 1,
					"numoutlets" : 0,
					"patching_rect" : [ 227.0, 367.477325000000008, 49.0, 20.0 ],
					"text" : "counter"
				}

			}
, 			{
				"box" : 				{
					"id" : "obj-13",
					"maxclass" : "number",
					"numinlets" : 1,
					"numoutlets" : 2,
					"outlettype" : [ "", "bang" ],
					"parameter_enable" : 0,
					"patching_rect" : [ 447.0, 367.477325000000008, 50.0, 22.0 ]
				}

			}
, 			{
				"box" : 				{
					"id" : "obj-12",
					"maxclass" : "number",
					"numinlets" : 1,
					"numoutlets" : 2,
					"outlettype" : [ "", "bang" ],
					"parameter_enable" : 0,
					"patching_rect" : [ 310.5, 367.477325000000008, 50.0, 22.0 ]
				}

			}
, 			{
				"box" : 				{
					"id" : "obj-11",
					"maxclass" : "number",
					"numinlets" : 1,
					"numoutlets" : 2,
					"outlettype" : [ "", "bang" ],
					"parameter_enable" : 0,
					"patching_rect" : [ 174.0, 367.477325000000008, 50.0, 22.0 ]
				}

			}
, 			{
				"box" : 				{
					"id" : "obj-10",
					"maxclass" : "newobj",
					"numinlets" : 1,
					"numoutlets" : 3,
					"outlettype" : [ "int", "int", "int" ],
					"patching_rect" : [ 174.0, 331.509918000000027, 292.0, 22.0 ],
					"text" : "unpack 0 0 0"
				}

			}
, 			{
				"box" : 				{
					"id" : "obj-9",
					"maxclass" : "newobj",
					"numinlets" : 1,
					"numoutlets" : 1,
					"outlettype" : [ "" ],
					"patching_rect" : [ 174.0, 295.542480000000012, 72.0, 22.0 ],
					"style" : "newobjGreen",
					"text" : "fromsymbol"
				}

			}
, 			{
				"box" : 				{
					"id" : "obj-8",
					"maxclass" : "newobj",
					"numinlets" : 3,
					"numoutlets" : 1,
					"outlettype" : [ "int" ],
					"patching_rect" : [ 174.0, 259.575072999999975, 46.0, 22.0 ],
					"style" : "newobjBlue",
					"text" : "itoa"
				}

			}
, 			{
				"box" : 				{
					"id" : "obj-7",
					"maxclass" : "newobj",
					"numinlets" : 2,
					"numoutlets" : 2,
					"outlettype" : [ "", "" ],
					"patching_rect" : [ 174.0, 223.607634999999988, 81.0, 22.0 ],
					"text" : "zl group 1000"
				}

			}
, 			{
				"box" : 				{
					"id" : "obj-6",
					"maxclass" : "toggle",
					"numinlets" : 1,
					"numoutlets" : 1,
					"outlettype" : [ "int" ],
					"parameter_enable" : 0,
					"patching_rect" : [ 98.0, 58.0, 24.0, 24.0 ],
					"style" : "toggleGreen"
				}

			}
, 			{
				"box" : 				{
					"id" : "obj-5",
					"maxclass" : "newobj",
					"numinlets" : 2,
					"numoutlets" : 1,
					"outlettype" : [ "bang" ],
					"patching_rect" : [ 98.0, 86.0, 69.0, 22.0 ],
					"text" : "metro 1000"
				}

			}
, 			{
				"box" : 				{
					"id" : "obj-4",
					"maxclass" : "newobj",
					"numinlets" : 3,
					"numoutlets" : 3,
					"outlettype" : [ "bang", "bang", "" ],
					"patching_rect" : [ 174.0, 187.640228000000008, 58.0, 22.0 ],
					"text" : "sel 13 10"
				}

			}
, 			{
				"box" : 				{
					"id" : "obj-3",
					"maxclass" : "number",
					"numinlets" : 1,
					"numoutlets" : 2,
					"outlettype" : [ "", "bang" ],
					"parameter_enable" : 0,
					"patching_rect" : [ 222.0, 86.0, 50.0, 22.0 ],
					"style" : "numberGold",
					"tricolor" : [ 0.764706, 0.592157, 0.101961, 1.0 ]
				}

			}
, 			{
				"box" : 				{
					"bgcolor" : [ 0.454902, 0.462745, 0.482353, 1.0 ],
					"bgcolor2" : [ 0.290196, 0.309804, 0.301961, 1.0 ],
					"bgfillcolor_angle" : 270.0,
					"bgfillcolor_autogradient" : 0.0,
					"bgfillcolor_color" : [ 0.290196, 0.309804, 0.301961, 1.0 ],
					"bgfillcolor_color1" : [ 0.454902, 0.462745, 0.482353, 1.0 ],
					"bgfillcolor_color2" : [ 0.290196, 0.309804, 0.301961, 1.0 ],
					"bgfillcolor_proportion" : 0.39,
					"bgfillcolor_type" : "gradient",
					"gradient" : 1,
					"id" : "obj-2",
					"maxclass" : "message",
					"numinlets" : 2,
					"numoutlets" : 1,
					"outlettype" : [ "" ],
					"patching_rect" : [ 174.0, 86.0, 33.0, 22.0 ],
					"text" : "print"
				}

			}
, 			{
				"box" : 				{
					"id" : "obj-1",
					"maxclass" : "newobj",
					"numinlets" : 1,
					"numoutlets" : 2,
					"outlettype" : [ "int", "" ],
					"patching_rect" : [ 174.0, 120.0, 78.0, 22.0 ],
					"style" : "newobjYellow",
					"text" : "serial e 9600"
				}

			}
, 			{
				"box" : 				{
					"background" : 1,
					"border" : 1,
					"id" : "obj-414",
					"maxclass" : "panel",
					"numinlets" : 1,
					"numoutlets" : 0,
					"patching_rect" : [ 319.0, 997.0, 1237.136179387569427, 889.535059064626694 ],
					"style" : "max log"
				}

			}
 ],
		"lines" : [ 			{
				"patchline" : 				{
					"destination" : [ "obj-23", 0 ],
					"source" : [ "obj-1", 0 ]
				}

			}
, 			{
				"patchline" : 				{
					"destination" : [ "obj-11", 0 ],
					"source" : [ "obj-10", 0 ]
				}

			}
, 			{
				"patchline" : 				{
					"destination" : [ "obj-12", 0 ],
					"source" : [ "obj-10", 1 ]
				}

			}
, 			{
				"patchline" : 				{
					"destination" : [ "obj-13", 0 ],
					"source" : [ "obj-10", 2 ]
				}

			}
, 			{
				"patchline" : 				{
					"destination" : [ "obj-20", 0 ],
					"source" : [ "obj-11", 0 ]
				}

			}
, 			{
				"patchline" : 				{
					"destination" : [ "obj-22", 0 ],
					"source" : [ "obj-12", 0 ]
				}

			}
, 			{
				"patchline" : 				{
					"destination" : [ "obj-27", 0 ],
					"source" : [ "obj-13", 0 ]
				}

			}
, 			{
				"patchline" : 				{
					"destination" : [ "obj-1", 0 ],
					"source" : [ "obj-2", 0 ]
				}

			}
, 			{
				"patchline" : 				{
					"destination" : [ "obj-21", 0 ],
					"source" : [ "obj-20", 0 ]
				}

			}
, 			{
				"patchline" : 				{
					"destination" : [ "obj-24", 0 ],
					"source" : [ "obj-21", 0 ]
				}

			}
, 			{
				"patchline" : 				{
					"destination" : [ "obj-21", 1 ],
					"source" : [ "obj-22", 0 ]
				}

			}
, 			{
				"patchline" : 				{
					"destination" : [ "obj-25", 1 ],
					"midpoints" : [ 183.5, 182.303832999999997, 296.5, 182.303832999999997 ],
					"order" : 0,
					"source" : [ "obj-23", 0 ]
				}

			}
, 			{
				"patchline" : 				{
					"destination" : [ "obj-4", 0 ],
					"order" : 1,
					"source" : [ "obj-23", 0 ]
				}

			}
, 			{
				"patchline" : 				{
					"destination" : [ "obj-19", 0 ],
					"source" : [ "obj-24", 0 ]
				}

			}
, 			{
				"patchline" : 				{
					"destination" : [ "obj-32", 0 ],
					"source" : [ "obj-25", 0 ]
				}

			}
, 			{
				"patchline" : 				{
					"destination" : [ "obj-19", 0 ],
					"midpoints" : [ 456.5, 513.5, 183.5, 513.5 ],
					"source" : [ "obj-27", 0 ]
				}

			}
, 			{
				"patchline" : 				{
					"destination" : [ "obj-29", 0 ],
					"source" : [ "obj-28", 0 ]
				}

			}
, 			{
				"patchline" : 				{
					"destination" : [ "obj-30", 0 ],
					"source" : [ "obj-29", 0 ]
				}

			}
, 			{
				"patchline" : 				{
					"destination" : [ "obj-1", 0 ],
					"source" : [ "obj-3", 0 ]
				}

			}
, 			{
				"patchline" : 				{
					"destination" : [ "obj-31", 0 ],
					"source" : [ "obj-30", 0 ]
				}

			}
, 			{
				"patchline" : 				{
					"destination" : [ "obj-406", 0 ],
					"midpoints" : [ 375.094271957874298, 1692.712006777524948, 493.923754155635834, 1692.712006777524948 ],
					"source" : [ "obj-302", 0 ]
				}

			}
, 			{
				"patchline" : 				{
					"destination" : [ "obj-417", 1 ],
					"order" : 0,
					"source" : [ "obj-306", 0 ]
				}

			}
, 			{
				"patchline" : 				{
					"destination" : [ "obj-443", 0 ],
					"midpoints" : [ 615.373755156993866, 1446.712006777524948, 447.2086301445961, 1446.712006777524948, 447.2086301445961, 1374.712006777524948, 394.854456603527069, 1374.712006777524948 ],
					"order" : 1,
					"source" : [ "obj-306", 0 ]
				}

			}
, 			{
				"patchline" : 				{
					"destination" : [ "obj-431", 1 ],
					"order" : 0,
					"source" : [ "obj-308", 0 ]
				}

			}
, 			{
				"patchline" : 				{
					"destination" : [ "obj-443", 0 ],
					"midpoints" : [ 832.973758399486542, 1446.712006777524948, 447.2086301445961, 1446.712006777524948, 447.2086301445961, 1374.712006777524948, 394.854456603527069, 1374.712006777524948 ],
					"order" : 1,
					"source" : [ "obj-308", 0 ]
				}

			}
, 			{
				"patchline" : 				{
					"destination" : [ "obj-19", 0 ],
					"midpoints" : [ 96.5, 505.5, 183.5, 505.5 ],
					"source" : [ "obj-31", 0 ]
				}

			}
, 			{
				"patchline" : 				{
					"destination" : [ "obj-435", 1 ],
					"order" : 0,
					"source" : [ "obj-312", 0 ]
				}

			}
, 			{
				"patchline" : 				{
					"destination" : [ "obj-443", 0 ],
					"midpoints" : [ 1047.373761594295502, 1446.712006777524948, 447.2086301445961, 1446.712006777524948, 447.2086301445961, 1374.712006777524948, 394.854456603527069, 1374.712006777524948 ],
					"order" : 1,
					"source" : [ "obj-312", 0 ]
				}

			}
, 			{
				"patchline" : 				{
					"destination" : [ "obj-439", 1 ],
					"order" : 0,
					"source" : [ "obj-314", 0 ]
				}

			}
, 			{
				"patchline" : 				{
					"destination" : [ "obj-443", 0 ],
					"midpoints" : [ 1272.983523070812225, 1446.712006777524948, 447.2086301445961, 1446.712006777524948, 447.2086301445961, 1374.712006777524948, 394.854456603527069, 1374.712006777524948 ],
					"order" : 1,
					"source" : [ "obj-314", 0 ]
				}

			}
, 			{
				"patchline" : 				{
					"destination" : [ "obj-327", 0 ],
					"source" : [ "obj-325", 0 ]
				}

			}
, 			{
				"patchline" : 				{
					"destination" : [ "obj-408", 0 ],
					"source" : [ "obj-327", 0 ]
				}

			}
, 			{
				"patchline" : 				{
					"destination" : [ "obj-25", 0 ],
					"source" : [ "obj-33", 0 ]
				}

			}
, 			{
				"patchline" : 				{
					"destination" : [ "obj-36", 0 ],
					"source" : [ "obj-34", 0 ]
				}

			}
, 			{
				"patchline" : 				{
					"destination" : [ "obj-357", 1 ],
					"midpoints" : [ 861.52375739812851, 1116.712006777524948, 975.2086301445961, 1116.712006777524948, 975.2086301445961, 1161.712006777524948, 984.168204545974731, 1161.712006777524948 ],
					"order" : 1,
					"source" : [ "obj-355", 0 ]
				}

			}
, 			{
				"patchline" : 				{
					"destination" : [ "obj-386", 0 ],
					"midpoints" : [ 861.52375739812851, 1203.712006777524948, 1122.2086301445961, 1203.712006777524948, 1122.2086301445961, 1254.712006777524948, 1186.323762893676758, 1254.712006777524948 ],
					"order" : 0,
					"source" : [ "obj-355", 0 ]
				}

			}
, 			{
				"patchline" : 				{
					"destination" : [ "obj-393", 0 ],
					"midpoints" : [ 861.52375739812851, 1203.712006777524948, 942.2086301445961, 1203.712006777524948, 942.2086301445961, 1254.712006777524948, 964.723759591579437, 1254.712006777524948 ],
					"order" : 2,
					"source" : [ "obj-355", 0 ]
				}

			}
, 			{
				"patchline" : 				{
					"destination" : [ "obj-400", 0 ],
					"midpoints" : [ 861.52375739812851, 1215.712006777524948, 768.2086301445961, 1215.712006777524948, 768.2086301445961, 1251.712006777524948, 750.323756396770477, 1251.712006777524948 ],
					"order" : 3,
					"source" : [ "obj-355", 0 ]
				}

			}
, 			{
				"patchline" : 				{
					"destination" : [ "obj-411", 0 ],
					"midpoints" : [ 861.52375739812851, 1203.712006777524948, 561.2086301445961, 1203.712006777524948, 561.2086301445961, 1251.712006777524948, 532.723753154277802, 1251.712006777524948 ],
					"order" : 4,
					"source" : [ "obj-355", 0 ]
				}

			}
, 			{
				"patchline" : 				{
					"destination" : [ "obj-357", 0 ],
					"midpoints" : [ 729.557090302308552, 1164.712006777524948, 934.168204545974731, 1164.712006777524948 ],
					"source" : [ "obj-356", 0 ]
				}

			}
, 			{
				"patchline" : 				{
					"destination" : [ "obj-385", 0 ],
					"order" : 0,
					"source" : [ "obj-357", 0 ]
				}

			}
, 			{
				"patchline" : 				{
					"destination" : [ "obj-392", 0 ],
					"order" : 1,
					"source" : [ "obj-357", 0 ]
				}

			}
, 			{
				"patchline" : 				{
					"destination" : [ "obj-399", 0 ],
					"order" : 2,
					"source" : [ "obj-357", 0 ]
				}

			}
, 			{
				"patchline" : 				{
					"destination" : [ "obj-410", 0 ],
					"midpoints" : [ 934.168204545974731, 1203.712006777524948, 493.923754155635834, 1203.712006777524948 ],
					"order" : 3,
					"source" : [ "obj-357", 0 ]
				}

			}
, 			{
				"patchline" : 				{
					"destination" : [ "obj-375", 0 ],
					"order" : 0,
					"source" : [ "obj-358", 0 ]
				}

			}
, 			{
				"patchline" : 				{
					"destination" : [ "obj-376", 0 ],
					"order" : 1,
					"source" : [ "obj-358", 0 ]
				}

			}
, 			{
				"patchline" : 				{
					"destination" : [ "obj-377", 0 ],
					"order" : 2,
					"source" : [ "obj-358", 0 ]
				}

			}
, 			{
				"patchline" : 				{
					"destination" : [ "obj-378", 0 ],
					"order" : 3,
					"source" : [ "obj-358", 0 ]
				}

			}
, 			{
				"patchline" : 				{
					"destination" : [ "obj-302", 0 ],
					"midpoints" : [ 796.323756396770932, 1203.712006777524948, 459.2086301445961, 1203.712006777524948, 459.2086301445961, 1593.712006777524948, 375.094271957874298, 1593.712006777524948 ],
					"order" : 2,
					"source" : [ "obj-359", 0 ]
				}

			}
, 			{
				"patchline" : 				{
					"destination" : [ "obj-358", 0 ],
					"midpoints" : [ 796.323756396770932, 1203.712006777524948, 459.2086301445961, 1203.712006777524948, 459.2086301445961, 1593.712006777524948, 414.965567529201508, 1593.712006777524948 ],
					"order" : 1,
					"source" : [ "obj-359", 0 ]
				}

			}
, 			{
				"patchline" : 				{
					"destination" : [ "obj-366", 1 ],
					"midpoints" : [ 796.323756396770932, 1116.712006777524948, 957.168204545974731, 1116.712006777524948 ],
					"order" : 0,
					"source" : [ "obj-359", 0 ]
				}

			}
, 			{
				"patchline" : 				{
					"destination" : [ "obj-35", 0 ],
					"source" : [ "obj-36", 0 ]
				}

			}
, 			{
				"patchline" : 				{
					"destination" : [ "obj-359", 0 ],
					"order" : 1,
					"source" : [ "obj-360", 0 ]
				}

			}
, 			{
				"patchline" : 				{
					"destination" : [ "obj-362", 0 ],
					"midpoints" : [ 796.323756396770932, 1062.712006777524948, 900.2086301445961, 1062.712006777524948, 900.2086301445961, 1068.712006777524948, 996.973759591579437, 1068.712006777524948 ],
					"order" : 0,
					"source" : [ "obj-360", 0 ]
				}

			}
, 			{
				"patchline" : 				{
					"destination" : [ "obj-361", 1 ],
					"midpoints" : [ 996.973759591579437, 1098.712006777524948, 996.66450023651123, 1098.712006777524948 ],
					"order" : 0,
					"source" : [ "obj-362", 0 ]
				}

			}
, 			{
				"patchline" : 				{
					"destination" : [ "obj-366", 0 ],
					"midpoints" : [ 996.973759591579437, 1116.712006777524948, 934.168204545974731, 1116.712006777524948 ],
					"order" : 1,
					"source" : [ "obj-362", 0 ]
				}

			}
, 			{
				"patchline" : 				{
					"destination" : [ "obj-361", 1 ],
					"midpoints" : [ 956.957093497117512, 1116.712006777524948, 996.66450023651123, 1116.712006777524948 ],
					"order" : 0,
					"source" : [ "obj-363", 0 ]
				}

			}
, 			{
				"patchline" : 				{
					"destination" : [ "obj-366", 0 ],
					"midpoints" : [ 956.957093497117512, 1116.712006777524948, 934.168204545974731, 1116.712006777524948 ],
					"order" : 1,
					"source" : [ "obj-363", 0 ]
				}

			}
, 			{
				"patchline" : 				{
					"destination" : [ "obj-361", 1 ],
					"midpoints" : [ 923.173760592937469, 1116.712006777524948, 996.66450023651123, 1116.712006777524948 ],
					"order" : 0,
					"source" : [ "obj-364", 0 ]
				}

			}
, 			{
				"patchline" : 				{
					"destination" : [ "obj-366", 0 ],
					"midpoints" : [ 923.173760592937469, 1116.712006777524948, 934.168204545974731, 1116.712006777524948 ],
					"order" : 1,
					"source" : [ "obj-364", 0 ]
				}

			}
, 			{
				"patchline" : 				{
					"destination" : [ "obj-302", 0 ],
					"midpoints" : [ 729.557090302308552, 1092.712006777524948, 459.2086301445961, 1092.712006777524948, 459.2086301445961, 1593.712006777524948, 375.094271957874298, 1593.712006777524948 ],
					"order" : 3,
					"source" : [ "obj-365", 0 ]
				}

			}
, 			{
				"patchline" : 				{
					"destination" : [ "obj-356", 0 ],
					"order" : 1,
					"source" : [ "obj-365", 0 ]
				}

			}
, 			{
				"patchline" : 				{
					"destination" : [ "obj-358", 0 ],
					"midpoints" : [ 729.557090302308552, 1092.712006777524948, 459.2086301445961, 1092.712006777524948, 459.2086301445961, 1593.712006777524948, 414.965567529201508, 1593.712006777524948 ],
					"order" : 2,
					"source" : [ "obj-365", 0 ]
				}

			}
, 			{
				"patchline" : 				{
					"destination" : [ "obj-366", 1 ],
					"midpoints" : [ 729.557090302308552, 1092.712006777524948, 771.2086301445961, 1092.712006777524948, 771.2086301445961, 1116.712006777524948, 957.168204545974731, 1116.712006777524948 ],
					"order" : 0,
					"source" : [ "obj-365", 0 ]
				}

			}
, 			{
				"patchline" : 				{
					"destination" : [ "obj-357", 0 ],
					"source" : [ "obj-366", 1 ]
				}

			}
, 			{
				"patchline" : 				{
					"destination" : [ "obj-385", 0 ],
					"midpoints" : [ 934.168204545974731, 1152.712006777524948, 909.2086301445961, 1152.712006777524948, 909.2086301445961, 1203.712006777524948, 1147.52376389503479, 1203.712006777524948 ],
					"order" : 0,
					"source" : [ "obj-366", 0 ]
				}

			}
, 			{
				"patchline" : 				{
					"destination" : [ "obj-392", 0 ],
					"order" : 1,
					"source" : [ "obj-366", 0 ]
				}

			}
, 			{
				"patchline" : 				{
					"destination" : [ "obj-399", 0 ],
					"midpoints" : [ 934.168204545974731, 1152.712006777524948, 711.52375739812851, 1152.712006777524948 ],
					"order" : 2,
					"source" : [ "obj-366", 0 ]
				}

			}
, 			{
				"patchline" : 				{
					"destination" : [ "obj-410", 0 ],
					"midpoints" : [ 934.168204545974731, 1152.712006777524948, 493.923754155635834, 1152.712006777524948 ],
					"order" : 3,
					"source" : [ "obj-366", 0 ]
				}

			}
, 			{
				"patchline" : 				{
					"destination" : [ "obj-363", 0 ],
					"midpoints" : [ 729.557090302308552, 1062.712006777524948, 900.2086301445961, 1062.712006777524948, 900.2086301445961, 1068.712006777524948, 956.957093497117512, 1068.712006777524948 ],
					"order" : 0,
					"source" : [ "obj-367", 0 ]
				}

			}
, 			{
				"patchline" : 				{
					"destination" : [ "obj-365", 0 ],
					"order" : 1,
					"source" : [ "obj-367", 0 ]
				}

			}
, 			{
				"patchline" : 				{
					"destination" : [ "obj-370", 0 ],
					"source" : [ "obj-368", 0 ]
				}

			}
, 			{
				"patchline" : 				{
					"destination" : [ "obj-39", 0 ],
					"source" : [ "obj-37", 0 ]
				}

			}
, 			{
				"patchline" : 				{
					"destination" : [ "obj-357", 0 ],
					"midpoints" : [ 442.315992772579193, 1164.712006777524948, 934.168204545974731, 1164.712006777524948 ],
					"order" : 1,
					"source" : [ "obj-370", 0 ]
				}

			}
, 			{
				"patchline" : 				{
					"destination" : [ "obj-364", 0 ],
					"midpoints" : [ 442.315992772579193, 1053.712006777524948, 705.2086301445961, 1053.712006777524948, 705.2086301445961, 1014.712006777524948, 923.173760592937469, 1014.712006777524948 ],
					"order" : 3,
					"source" : [ "obj-370", 0 ]
				}

			}
, 			{
				"patchline" : 				{
					"destination" : [ "obj-375", 0 ],
					"midpoints" : [ 442.315992772579193, 1257.712006777524948, 471.2086301445961, 1257.712006777524948, 471.2086301445961, 1587.712006777524948, 1122.2086301445961, 1587.712006777524948, 1122.2086301445961, 1638.712006777524948, 1147.52376389503479, 1638.712006777524948 ],
					"order" : 0,
					"source" : [ "obj-370", 0 ]
				}

			}
, 			{
				"patchline" : 				{
					"destination" : [ "obj-376", 0 ],
					"midpoints" : [ 442.315992772579193, 1257.712006777524948, 471.2086301445961, 1257.712006777524948, 471.2086301445961, 1587.712006777524948, 903.2086301445961, 1587.712006777524948, 903.2086301445961, 1638.712006777524948, 925.923760592937469, 1638.712006777524948 ],
					"order" : 2,
					"source" : [ "obj-370", 0 ]
				}

			}
, 			{
				"patchline" : 				{
					"destination" : [ "obj-377", 0 ],
					"midpoints" : [ 442.315992772579193, 1257.712006777524948, 471.2086301445961, 1257.712006777524948, 471.2086301445961, 1587.712006777524948, 687.2086301445961, 1587.712006777524948, 687.2086301445961, 1638.712006777524948, 711.52375739812851, 1638.712006777524948 ],
					"order" : 4,
					"source" : [ "obj-370", 0 ]
				}

			}
, 			{
				"patchline" : 				{
					"destination" : [ "obj-378", 0 ],
					"midpoints" : [ 442.315992772579193, 1257.712006777524948, 471.2086301445961, 1257.712006777524948, 471.2086301445961, 1638.712006777524948, 493.923754155635834, 1638.712006777524948 ],
					"order" : 5,
					"source" : [ "obj-370", 0 ]
				}

			}
, 			{
				"patchline" : 				{
					"destination" : [ "obj-371", 1 ],
					"source" : [ "obj-375", 1 ]
				}

			}
, 			{
				"patchline" : 				{
					"destination" : [ "obj-406", 0 ],
					"order" : 1,
					"source" : [ "obj-375", 0 ]
				}

			}
, 			{
				"patchline" : 				{
					"destination" : [ "obj-446", 0 ],
					"order" : 0,
					"source" : [ "obj-375", 0 ]
				}

			}
, 			{
				"patchline" : 				{
					"destination" : [ "obj-372", 1 ],
					"source" : [ "obj-376", 1 ]
				}

			}
, 			{
				"patchline" : 				{
					"destination" : [ "obj-406", 0 ],
					"order" : 1,
					"source" : [ "obj-376", 0 ]
				}

			}
, 			{
				"patchline" : 				{
					"destination" : [ "obj-446", 0 ],
					"order" : 0,
					"source" : [ "obj-376", 0 ]
				}

			}
, 			{
				"patchline" : 				{
					"destination" : [ "obj-373", 1 ],
					"source" : [ "obj-377", 1 ]
				}

			}
, 			{
				"patchline" : 				{
					"destination" : [ "obj-406", 0 ],
					"order" : 1,
					"source" : [ "obj-377", 0 ]
				}

			}
, 			{
				"patchline" : 				{
					"destination" : [ "obj-446", 0 ],
					"order" : 0,
					"source" : [ "obj-377", 0 ]
				}

			}
, 			{
				"patchline" : 				{
					"destination" : [ "obj-374", 1 ],
					"source" : [ "obj-378", 1 ]
				}

			}
, 			{
				"patchline" : 				{
					"destination" : [ "obj-406", 0 ],
					"order" : 1,
					"source" : [ "obj-378", 0 ]
				}

			}
, 			{
				"patchline" : 				{
					"destination" : [ "obj-446", 0 ],
					"order" : 0,
					"source" : [ "obj-378", 0 ]
				}

			}
, 			{
				"patchline" : 				{
					"destination" : [ "obj-375", 0 ],
					"source" : [ "obj-379", 0 ]
				}

			}
, 			{
				"patchline" : 				{
					"destination" : [ "obj-376", 0 ],
					"source" : [ "obj-380", 0 ]
				}

			}
, 			{
				"patchline" : 				{
					"destination" : [ "obj-377", 0 ],
					"source" : [ "obj-381", 0 ]
				}

			}
, 			{
				"patchline" : 				{
					"destination" : [ "obj-388", 0 ],
					"source" : [ "obj-382", 0 ]
				}

			}
, 			{
				"patchline" : 				{
					"destination" : [ "obj-379", 1 ],
					"source" : [ "obj-384", 0 ]
				}

			}
, 			{
				"patchline" : 				{
					"destination" : [ "obj-386", 0 ],
					"order" : 0,
					"source" : [ "obj-385", 0 ]
				}

			}
, 			{
				"patchline" : 				{
					"destination" : [ "obj-388", 0 ],
					"order" : 1,
					"source" : [ "obj-385", 0 ]
				}

			}
, 			{
				"patchline" : 				{
					"destination" : [ "obj-388", 0 ],
					"source" : [ "obj-386", 0 ]
				}

			}
, 			{
				"patchline" : 				{
					"destination" : [ "obj-379", 0 ],
					"source" : [ "obj-387", 0 ]
				}

			}
, 			{
				"patchline" : 				{
					"destination" : [ "obj-384", 0 ],
					"source" : [ "obj-388", 1 ]
				}

			}
, 			{
				"patchline" : 				{
					"destination" : [ "obj-395", 0 ],
					"source" : [ "obj-389", 0 ]
				}

			}
, 			{
				"patchline" : 				{
					"destination" : [ "obj-38", 0 ],
					"order" : 1,
					"source" : [ "obj-39", 0 ]
				}

			}
, 			{
				"patchline" : 				{
					"destination" : [ "obj-50", 0 ],
					"order" : 0,
					"source" : [ "obj-39", 0 ]
				}

			}
, 			{
				"patchline" : 				{
					"destination" : [ "obj-380", 1 ],
					"source" : [ "obj-391", 0 ]
				}

			}
, 			{
				"patchline" : 				{
					"destination" : [ "obj-393", 0 ],
					"order" : 0,
					"source" : [ "obj-392", 0 ]
				}

			}
, 			{
				"patchline" : 				{
					"destination" : [ "obj-395", 0 ],
					"order" : 1,
					"source" : [ "obj-392", 0 ]
				}

			}
, 			{
				"patchline" : 				{
					"destination" : [ "obj-395", 0 ],
					"source" : [ "obj-393", 0 ]
				}

			}
, 			{
				"patchline" : 				{
					"destination" : [ "obj-380", 0 ],
					"source" : [ "obj-394", 0 ]
				}

			}
, 			{
				"patchline" : 				{
					"destination" : [ "obj-391", 0 ],
					"source" : [ "obj-395", 1 ]
				}

			}
, 			{
				"patchline" : 				{
					"destination" : [ "obj-402", 0 ],
					"midpoints" : [ 742.557090302308552, 1242.712006777524948, 726.2086301445961, 1242.712006777524948, 726.2086301445961, 1281.712006777524948, 711.52375739812851, 1281.712006777524948 ],
					"source" : [ "obj-396", 0 ]
				}

			}
, 			{
				"patchline" : 				{
					"destination" : [ "obj-381", 1 ],
					"source" : [ "obj-398", 0 ]
				}

			}
, 			{
				"patchline" : 				{
					"destination" : [ "obj-400", 0 ],
					"midpoints" : [ 711.52375739812851, 1254.712006777524948, 750.323756396770477, 1254.712006777524948 ],
					"order" : 0,
					"source" : [ "obj-399", 0 ]
				}

			}
, 			{
				"patchline" : 				{
					"destination" : [ "obj-402", 0 ],
					"order" : 1,
					"source" : [ "obj-399", 0 ]
				}

			}
, 			{
				"patchline" : 				{
					"destination" : [ "obj-7", 0 ],
					"midpoints" : [ 222.5, 226.291778999999991, 186.0, 226.291778999999991, 186.0, 231.660065000000003, 183.5, 231.660065000000003 ],
					"source" : [ "obj-4", 2 ]
				}

			}
, 			{
				"patchline" : 				{
					"destination" : [ "obj-7", 0 ],
					"source" : [ "obj-4", 0 ]
				}

			}
, 			{
				"patchline" : 				{
					"destination" : [ "obj-353", 1 ],
					"midpoints" : [ 750.323756396770477, 1284.712006777524948, 831.2086301445961, 1284.712006777524948, 831.2086301445961, 1263.712006777524948, 903.2086301445961, 1263.712006777524948, 903.2086301445961, 1227.712006777524948, 892.52375739812851, 1227.712006777524948 ],
					"order" : 0,
					"source" : [ "obj-400", 0 ]
				}

			}
, 			{
				"patchline" : 				{
					"destination" : [ "obj-402", 0 ],
					"midpoints" : [ 750.323756396770477, 1284.712006777524948, 714.2086301445961, 1284.712006777524948, 714.2086301445961, 1290.712006777524948, 711.52375739812851, 1290.712006777524948 ],
					"order" : 1,
					"source" : [ "obj-400", 0 ]
				}

			}
, 			{
				"patchline" : 				{
					"destination" : [ "obj-381", 0 ],
					"source" : [ "obj-401", 0 ]
				}

			}
, 			{
				"patchline" : 				{
					"destination" : [ "obj-398", 0 ],
					"source" : [ "obj-402", 1 ]
				}

			}
, 			{
				"patchline" : 				{
					"destination" : [ "obj-413", 0 ],
					"source" : [ "obj-404", 0 ]
				}

			}
, 			{
				"patchline" : 				{
					"destination" : [ "obj-403", 1 ],
					"source" : [ "obj-406", 1 ]
				}

			}
, 			{
				"patchline" : 				{
					"destination" : [ "obj-405", 1 ],
					"order" : 0,
					"source" : [ "obj-406", 0 ]
				}

			}
, 			{
				"patchline" : 				{
					"destination" : [ "obj-405", 0 ],
					"order" : 1,
					"source" : [ "obj-406", 0 ]
				}

			}
, 			{
				"patchline" : 				{
					"destination" : [ "obj-378", 0 ],
					"source" : [ "obj-407", 0 ]
				}

			}
, 			{
				"patchline" : 				{
					"destination" : [ "obj-417", 0 ],
					"midpoints" : [ 394.854456603527069, 1437.712006777524948, 471.2086301445961, 1437.712006777524948, 471.2086301445961, 1452.712006777524948, 493.923754155635834, 1452.712006777524948 ],
					"order" : 3,
					"source" : [ "obj-408", 0 ]
				}

			}
, 			{
				"patchline" : 				{
					"destination" : [ "obj-431", 0 ],
					"midpoints" : [ 394.854456603527069, 1437.712006777524948, 471.2086301445961, 1437.712006777524948, 471.2086301445961, 1452.712006777524948, 711.52375739812851, 1452.712006777524948 ],
					"order" : 2,
					"source" : [ "obj-408", 0 ]
				}

			}
, 			{
				"patchline" : 				{
					"destination" : [ "obj-435", 0 ],
					"midpoints" : [ 394.854456603527069, 1437.712006777524948, 471.2086301445961, 1437.712006777524948, 471.2086301445961, 1452.712006777524948, 925.923760592937469, 1452.712006777524948 ],
					"order" : 1,
					"source" : [ "obj-408", 0 ]
				}

			}
, 			{
				"patchline" : 				{
					"destination" : [ "obj-439", 0 ],
					"midpoints" : [ 394.854456603527069, 1437.712006777524948, 471.2086301445961, 1437.712006777524948, 471.2086301445961, 1452.712006777524948, 1147.52376389503479, 1452.712006777524948 ],
					"order" : 0,
					"source" : [ "obj-408", 0 ]
				}

			}
, 			{
				"patchline" : 				{
					"destination" : [ "obj-407", 1 ],
					"source" : [ "obj-409", 0 ]
				}

			}
, 			{
				"patchline" : 				{
					"destination" : [ "obj-411", 0 ],
					"midpoints" : [ 493.923754155635834, 1254.712006777524948, 532.723753154277802, 1254.712006777524948 ],
					"order" : 0,
					"source" : [ "obj-410", 0 ]
				}

			}
, 			{
				"patchline" : 				{
					"destination" : [ "obj-413", 0 ],
					"order" : 1,
					"source" : [ "obj-410", 0 ]
				}

			}
, 			{
				"patchline" : 				{
					"destination" : [ "obj-413", 0 ],
					"source" : [ "obj-411", 0 ]
				}

			}
, 			{
				"patchline" : 				{
					"destination" : [ "obj-407", 0 ],
					"source" : [ "obj-412", 0 ]
				}

			}
, 			{
				"patchline" : 				{
					"destination" : [ "obj-409", 0 ],
					"source" : [ "obj-413", 1 ]
				}

			}
, 			{
				"patchline" : 				{
					"destination" : [ "obj-412", 0 ],
					"order" : 1,
					"source" : [ "obj-417", 0 ]
				}

			}
, 			{
				"patchline" : 				{
					"destination" : [ "obj-425", 1 ],
					"order" : 0,
					"source" : [ "obj-417", 0 ]
				}

			}
, 			{
				"patchline" : 				{
					"destination" : [ "obj-417", 1 ],
					"order" : 0,
					"source" : [ "obj-421", 0 ]
				}

			}
, 			{
				"patchline" : 				{
					"destination" : [ "obj-443", 0 ],
					"midpoints" : [ 559.664493799209595, 1446.712006777524948, 447.2086301445961, 1446.712006777524948, 447.2086301445961, 1374.712006777524948, 394.854456603527069, 1374.712006777524948 ],
					"order" : 1,
					"source" : [ "obj-421", 0 ]
				}

			}
, 			{
				"patchline" : 				{
					"destination" : [ "obj-417", 1 ],
					"order" : 0,
					"source" : [ "obj-423", 0 ]
				}

			}
, 			{
				"patchline" : 				{
					"destination" : [ "obj-443", 0 ],
					"midpoints" : [ 493.923754155635834, 1437.712006777524948, 447.2086301445961, 1437.712006777524948, 447.2086301445961, 1374.712006777524948, 394.854456603527069, 1374.712006777524948 ],
					"order" : 1,
					"source" : [ "obj-423", 0 ]
				}

			}
, 			{
				"patchline" : 				{
					"destination" : [ "obj-431", 1 ],
					"midpoints" : [ 711.52375739812851, 1452.712006777524948, 722.02375739812851, 1452.712006777524948 ],
					"order" : 0,
					"source" : [ "obj-429", 0 ]
				}

			}
, 			{
				"patchline" : 				{
					"destination" : [ "obj-443", 0 ],
					"midpoints" : [ 711.52375739812851, 1446.712006777524948, 447.2086301445961, 1446.712006777524948, 447.2086301445961, 1374.712006777524948, 394.854456603527069, 1374.712006777524948 ],
					"order" : 1,
					"source" : [ "obj-429", 0 ]
				}

			}
, 			{
				"patchline" : 				{
					"destination" : [ "obj-56", 0 ],
					"source" : [ "obj-43", 0 ]
				}

			}
, 			{
				"patchline" : 				{
					"destination" : [ "obj-431", 1 ],
					"order" : 0,
					"source" : [ "obj-430", 0 ]
				}

			}
, 			{
				"patchline" : 				{
					"destination" : [ "obj-443", 0 ],
					"midpoints" : [ 777.264497041702271, 1446.712006777524948, 447.2086301445961, 1446.712006777524948, 447.2086301445961, 1374.712006777524948, 394.854456603527069, 1374.712006777524948 ],
					"order" : 1,
					"source" : [ "obj-430", 0 ]
				}

			}
, 			{
				"patchline" : 				{
					"destination" : [ "obj-401", 0 ],
					"order" : 1,
					"source" : [ "obj-431", 0 ]
				}

			}
, 			{
				"patchline" : 				{
					"destination" : [ "obj-428", 1 ],
					"midpoints" : [ 711.52375739812851, 1491.712006777524948, 786.857090731461994, 1491.712006777524948 ],
					"order" : 0,
					"source" : [ "obj-431", 0 ]
				}

			}
, 			{
				"patchline" : 				{
					"destination" : [ "obj-435", 1 ],
					"midpoints" : [ 925.923760592937469, 1452.712006777524948, 936.423760592937469, 1452.712006777524948 ],
					"order" : 0,
					"source" : [ "obj-433", 0 ]
				}

			}
, 			{
				"patchline" : 				{
					"destination" : [ "obj-443", 0 ],
					"midpoints" : [ 925.923760592937469, 1446.712006777524948, 447.2086301445961, 1446.712006777524948, 447.2086301445961, 1374.712006777524948, 394.854456603527069, 1374.712006777524948 ],
					"order" : 1,
					"source" : [ "obj-433", 0 ]
				}

			}
, 			{
				"patchline" : 				{
					"destination" : [ "obj-435", 1 ],
					"order" : 0,
					"source" : [ "obj-434", 0 ]
				}

			}
, 			{
				"patchline" : 				{
					"destination" : [ "obj-443", 0 ],
					"midpoints" : [ 991.66450023651123, 1446.712006777524948, 447.2086301445961, 1446.712006777524948, 447.2086301445961, 1374.712006777524948, 394.854456603527069, 1374.712006777524948 ],
					"order" : 1,
					"source" : [ "obj-434", 0 ]
				}

			}
, 			{
				"patchline" : 				{
					"destination" : [ "obj-394", 0 ],
					"order" : 1,
					"source" : [ "obj-435", 0 ]
				}

			}
, 			{
				"patchline" : 				{
					"destination" : [ "obj-432", 1 ],
					"midpoints" : [ 925.923760592937469, 1491.712006777524948, 1001.257093926270954, 1491.712006777524948 ],
					"order" : 0,
					"source" : [ "obj-435", 0 ]
				}

			}
, 			{
				"patchline" : 				{
					"destination" : [ "obj-439", 1 ],
					"midpoints" : [ 1147.52376389503479, 1452.712006777524948, 1158.02376389503479, 1452.712006777524948 ],
					"order" : 0,
					"source" : [ "obj-437", 0 ]
				}

			}
, 			{
				"patchline" : 				{
					"destination" : [ "obj-443", 0 ],
					"midpoints" : [ 1147.52376389503479, 1446.712006777524948, 447.2086301445961, 1446.712006777524948, 447.2086301445961, 1374.712006777524948, 394.854456603527069, 1374.712006777524948 ],
					"order" : 1,
					"source" : [ "obj-437", 0 ]
				}

			}
, 			{
				"patchline" : 				{
					"destination" : [ "obj-439", 1 ],
					"order" : 0,
					"source" : [ "obj-438", 0 ]
				}

			}
, 			{
				"patchline" : 				{
					"destination" : [ "obj-443", 0 ],
					"midpoints" : [ 1213.264503538608551, 1446.712006777524948, 447.2086301445961, 1446.712006777524948, 447.2086301445961, 1374.712006777524948, 394.854456603527069, 1374.712006777524948 ],
					"order" : 1,
					"source" : [ "obj-438", 0 ]
				}

			}
, 			{
				"patchline" : 				{
					"destination" : [ "obj-387", 0 ],
					"order" : 1,
					"source" : [ "obj-439", 0 ]
				}

			}
, 			{
				"patchline" : 				{
					"destination" : [ "obj-436", 1 ],
					"order" : 0,
					"source" : [ "obj-439", 0 ]
				}

			}
, 			{
				"patchline" : 				{
					"destination" : [ "obj-52", 0 ],
					"source" : [ "obj-44", 0 ]
				}

			}
, 			{
				"patchline" : 				{
					"destination" : [ "obj-408", 0 ],
					"source" : [ "obj-443", 0 ]
				}

			}
, 			{
				"patchline" : 				{
					"destination" : [ "obj-59", 0 ],
					"source" : [ "obj-46", 0 ]
				}

			}
, 			{
				"patchline" : 				{
					"destination" : [ "obj-49", 0 ],
					"source" : [ "obj-48", 0 ]
				}

			}
, 			{
				"patchline" : 				{
					"destination" : [ "obj-47", 1 ],
					"source" : [ "obj-49", 0 ]
				}

			}
, 			{
				"patchline" : 				{
					"destination" : [ "obj-1", 0 ],
					"source" : [ "obj-5", 0 ]
				}

			}
, 			{
				"patchline" : 				{
					"destination" : [ "obj-26", 1 ],
					"order" : 1,
					"source" : [ "obj-50", 0 ]
				}

			}
, 			{
				"patchline" : 				{
					"destination" : [ "obj-44", 0 ],
					"order" : 0,
					"source" : [ "obj-50", 0 ]
				}

			}
, 			{
				"patchline" : 				{
					"destination" : [ "obj-53", 1 ],
					"source" : [ "obj-52", 1 ]
				}

			}
, 			{
				"patchline" : 				{
					"destination" : [ "obj-59", 0 ],
					"source" : [ "obj-52", 0 ]
				}

			}
, 			{
				"patchline" : 				{
					"destination" : [ "obj-367", 0 ],
					"source" : [ "obj-56", 0 ]
				}

			}
, 			{
				"patchline" : 				{
					"destination" : [ "obj-408", 0 ],
					"source" : [ "obj-56", 1 ]
				}

			}
, 			{
				"patchline" : 				{
					"destination" : [ "obj-61", 0 ],
					"order" : 1,
					"source" : [ "obj-57", 0 ]
				}

			}
, 			{
				"patchline" : 				{
					"destination" : [ "obj-63", 1 ],
					"order" : 0,
					"source" : [ "obj-57", 0 ]
				}

			}
, 			{
				"patchline" : 				{
					"destination" : [ "obj-43", 0 ],
					"source" : [ "obj-59", 0 ]
				}

			}
, 			{
				"patchline" : 				{
					"destination" : [ "obj-57", 0 ],
					"source" : [ "obj-59", 1 ]
				}

			}
, 			{
				"patchline" : 				{
					"destination" : [ "obj-63", 0 ],
					"source" : [ "obj-59", 2 ]
				}

			}
, 			{
				"patchline" : 				{
					"destination" : [ "obj-5", 0 ],
					"source" : [ "obj-6", 0 ]
				}

			}
, 			{
				"patchline" : 				{
					"destination" : [ "obj-74", 0 ],
					"source" : [ "obj-63", 0 ]
				}

			}
, 			{
				"patchline" : 				{
					"destination" : [ "obj-36", 1 ],
					"midpoints" : [ 183.5, 254.091370000000012, 371.5, 254.091370000000012 ],
					"order" : 0,
					"source" : [ "obj-7", 0 ]
				}

			}
, 			{
				"patchline" : 				{
					"destination" : [ "obj-8", 0 ],
					"order" : 1,
					"source" : [ "obj-7", 0 ]
				}

			}
, 			{
				"patchline" : 				{
					"destination" : [ "obj-355", 0 ],
					"source" : [ "obj-74", 0 ]
				}

			}
, 			{
				"patchline" : 				{
					"destination" : [ "obj-39", 1 ],
					"midpoints" : [ 183.5, 285.0, 106.5, 285.0 ],
					"order" : 1,
					"source" : [ "obj-8", 0 ]
				}

			}
, 			{
				"patchline" : 				{
					"destination" : [ "obj-9", 0 ],
					"order" : 0,
					"source" : [ "obj-8", 0 ]
				}

			}
, 			{
				"patchline" : 				{
					"destination" : [ "obj-10", 0 ],
					"source" : [ "obj-9", 0 ]
				}

			}
 ],
		"dependency_cache" : [  ],
		"autosave" : 0,
		"styles" : [ 			{
				"name" : "helpfile_label-1",
				"default" : 				{
					"fontsize" : [ 13 ],
					"fontname" : [ "Arial" ],
					"textcolor" : [ 0.501961, 0.501961, 0.501961, 1 ]
				}
,
				"parentstyle" : "",
				"multi" : 0
			}
, 			{
				"name" : "max log",
				"default" : 				{
					"color" : [ 0.737254901960784, 0.737254901960784, 0.737254901960784, 1.0 ],
					"bgfillcolor" : 					{
						"type" : "color",
						"color" : [ 0.996078431372549, 0.996078431372549, 0.996078431372549, 1.0 ],
						"color1" : [ 0.996078431372549, 0.996078431372549, 0.996078431372549, 1.0 ],
						"color2" : [ 0.2, 0.2, 0.2, 1.0 ],
						"angle" : 270.0,
						"proportion" : 0.5,
						"autogradient" : 0.0
					}

				}
,
				"parentstyle" : "",
				"multi" : 0
			}
, 			{
				"name" : "max log big green button",
				"default" : 				{
					"textcolor_inverse" : [ 0.0, 0.0, 0.0, 1.0 ],
					"bgfillcolor" : 					{
						"type" : "color",
						"color1" : [ 0.996078431372549, 0.996078431372549, 0.996078431372549, 1.0 ],
						"color2" : [ 0.2, 0.2, 0.2, 1.0 ],
						"color" : [ 0.2, 0.992156862745098, 0.0, 1.0 ],
						"angle" : 270.0,
						"proportion" : 0.5,
						"autogradient" : 0.0
					}

				}
,
				"parentstyle" : "max log big red button",
				"multi" : 0
			}
, 			{
				"name" : "max log big red button",
				"default" : 				{
					"textcolor_inverse" : [ 0.0, 0.0, 0.0, 1.0 ],
					"bgfillcolor" : 					{
						"type" : "color",
						"color1" : [ 0.996078431372549, 0.996078431372549, 0.996078431372549, 1.0 ],
						"color2" : [ 0.2, 0.2, 0.2, 1.0 ],
						"color" : [ 0.996078431372549, 0.0, 0.0, 1.0 ],
						"angle" : 270.0,
						"proportion" : 0.5,
						"autogradient" : 0.0
					}

				}
,
				"parentstyle" : "",
				"multi" : 0
			}
, 			{
				"name" : "max log comments",
				"default" : 				{
					"textcolor" : [ 0.827450980392157, 0.0, 0.0, 1.0 ]
				}
,
				"parentstyle" : "",
				"multi" : 0
			}
, 			{
				"name" : "max log result m",
				"default" : 				{
					"textcolor_inverse" : [ 0.0, 0.0, 0.0, 1.0 ],
					"bgfillcolor" : 					{
						"type" : "color",
						"color1" : [ 0.301961, 0.301961, 0.301961, 1.0 ],
						"color2" : [ 0.2, 0.2, 0.2, 1.0 ],
						"color" : [ 0.231372549019608, 0.411764705882353, 0.92156862745098, 1.0 ],
						"angle" : 270.0,
						"proportion" : 0.5,
						"autogradient" : 0.0
					}

				}
,
				"parentstyle" : "",
				"multi" : 0
			}
, 			{
				"name" : "max log_back",
				"default" : 				{
					"bgfillcolor" : 					{
						"type" : "color",
						"color" : [ 0.03921568627451, 0.384313725490196, 0.0, 1.0 ],
						"color1" : [ 0.996078431372549, 0.996078431372549, 0.996078431372549, 1.0 ],
						"color2" : [ 0.2, 0.2, 0.2, 1.0 ],
						"angle" : 270.0,
						"proportion" : 0.5,
						"autogradient" : 0.0
					}

				}
,
				"parentstyle" : "max log",
				"multi" : 0
			}
, 			{
				"name" : "max log_inital value",
				"parentstyle" : "number001",
				"multi" : 0
			}
, 			{
				"name" : "max log_titles",
				"default" : 				{
					"fontface" : [ 1 ],
					"textcolor" : [ 0.011764705882353, 0.074509803921569, 0.635294117647059, 1.0 ]
				}
,
				"parentstyle" : "",
				"multi" : 0
			}
, 			{
				"name" : "max long black bold",
				"default" : 				{
					"fontsize" : [ 14.0 ],
					"fontface" : [ 1 ]
				}
,
				"parentstyle" : "max log",
				"multi" : 0
			}
, 			{
				"name" : "number001",
				"default" : 				{
					"bgcolor" : [ 0.976470588235294, 0.929411764705882, 0.219607843137255, 1.0 ],
					"textcolor_inverse" : [ 0.0, 0.0, 0.0, 1.0 ]
				}
,
				"parentstyle" : "",
				"multi" : 0
			}
 ]
	}

}
